{"title":"Alien Intruder (1993) DVDRip XviD AC3-FWOLF","uid":9589695,"size":1393271590,"categoryP":"video","categoryS":"movies","magnet":"?xt=urn:btih:9818f957933d1ca8cca5aad8294b0da74390f47b&amp;dn=Alien+Intruder+%281993%29+DVDRip+XviD+AC3-FWOLF&amp;tr=udp%3A%2F%2Ftracker.openbittorrent.com%3A80&amp;tr=udp%3A%2F%2Fopen.demonii.com%3A1337&amp;tr=udp%3A%2F%2Ftracker.coppersurfer.tk%3A6969&amp;tr=udp%3A%2F%2Fexodus.desync.com%3A6969","seeders":1,"leechers":2,"uploader":"sakhslitsa","files":15,"time":1391885823,"description":" &lt;a href=&quot;http://www.imdb.com/title/tt0106244/&quot; rel=&quot;nofollow&quot; target=&quot;_NEW&quot;&gt;http://www.imdb.com/title/tt0106244/&lt;/a&gt;\n\n\nFormat : AVI\nFormat/Info : Audio Video Interleave\nFile size : 1.26 GiB\nDuration : 1h 30mn\nOverall bit rate : 1 994 Kbps\n\nVideo\nID : 0\nFormat : MPEG-4 Visual\nFormat profile : Advanced Simple@L5\nFormat settings, BVOP : 2\nFormat settings, QPel : No\nFormat settings, GMC : No warppoints\nFormat settings, Matrix : Default (H.263)\nCodec ID : XVID\nCodec ID/Hint : XviD\nDuration : 1h 30mn\nBit rate : 1 602 Kbps\nWidth : 640 pixels\nHeight : 480 pixels\nDisplay aspect ratio : 4:3\nFrame rate : 25.000 fps\nColor space : YUV\nChroma subsampling : 4:2:0\nBit depth : 8 bits\nScan type : Progressive\nCompression mode : Lossy\nBits/(Pixel*Frame) : 0.209\nStream size : 1.01 GiB (80%)\nWriting library : XviD 1.2.1 (UTC 2008-12-04)\n\nAudio\nID : 1\nFormat : AC-3\nFormat/Info : Audio Coding 3\nMode extension : CM (complete main)\nFormat settings, Endianness : Big\nCodec ID : 2000\nDuration : 1h 30mn\nBit rate mode : Constant\nBit rate : 384 Kbps\nChannel(s) : 6 channels\nChannel positions : Front: L C R, Side: L R, LFE\nSampling rate : 48.0 KHz\nBit depth : 16 bits\nCompression mode : Lossy\nStream size : 249 MiB (19%)\nAlignment : Aligned on interleaves\nInterleave, duration : 64 ms (1.60 video frames)\nInterleave, preload duration : 192 ms\n\n\n\nEncoded....................FWOLF\n\nSource.....................DVD5/PAL (Thanks!)\n\nSample.....................Yes\n\nSubs.......................(idx)...Norwegian Swedish Danish Finnish\n\n\nSubs.......................(srt) ...No\n\n\n\nGreetz To: PsiX | Blacksheep | CFR | tomcat-12...\n.....and all P2P Encoders and Groups.....","torrent":{"xt":"urn:btih:9818f957933d1ca8cca5aad8294b0da74390f47b","amp;dn":"Alien+Intruder+%281993%29+DVDRip+XviD+AC3-FWOLF","amp;tr":["udp%3A%2F%2Ftracker.openbittorrent.com%3A80","udp%3A%2F%2Fopen.demonii.com%3A1337","udp%3A%2F%2Ftracker.coppersurfer.tk%3A6969","udp%3A%2F%2Fexodus.desync.com%3A6969"],"infoHash":"9818f957933d1ca8cca5aad8294b0da74390f47b","infoHashBuffer":{"type":"Buffer","data":[152,24,249,87,147,61,28,168,204,165,170,216,41,75,13,167,67,144,244,123]},"announce":[],"urlList":[]}}